<svg width="123" height="48" viewBox="0 0 123 48" fill="none" xmlns="http://www.w3.org/2000/svg">
<g id="finance-app-js-logo-1" clip-path="url(#clip0_2_77)">
<path id="Vector" d="M24 0C19.2533 0 14.6131 1.40758 10.6663 4.04472C6.71955 6.68187 3.64341 10.4302 1.8269 14.8156C0.0103987 19.201 -0.46488 24.0266 0.461163 28.6822C1.38721 33.3378 3.67299 37.614 7.02945 40.9707C10.3859 44.3271 14.6623 46.6128 19.3178 47.5389C23.9734 48.465 28.799 47.9895 33.1845 46.173C37.5699 44.3565 41.3181 41.2806 43.9554 37.3338C46.5924 33.387 48 28.7467 48 24C47.9934 17.6369 45.4626 11.5363 40.9632 7.03686C36.4638 2.53744 30.363 0.00671958 24 0ZM24 44.3076C19.9835 44.3076 16.0572 43.1166 12.7177 40.8852C9.37809 38.6538 6.7752 35.4822 5.23815 31.7715C3.7011 28.0607 3.29895 23.9775 4.08252 20.0382C4.86609 16.0989 6.80022 12.4804 9.64029 9.64029C12.4804 6.80022 16.0989 4.86609 20.0382 4.08252C23.9775 3.29895 28.0607 3.7011 31.7715 5.23815C35.4822 6.77517 38.6538 9.37806 40.8852 12.7177C43.1166 16.0572 44.3076 19.9835 44.3076 24C44.3016 29.384 42.1602 34.5459 38.3529 38.3529C34.5459 42.1602 29.3841 44.3016 24 44.3076ZM33.2307 28.6154C33.2307 30.3291 32.55 31.9725 31.3383 33.1845C30.1266 34.3962 28.4829 35.0769 26.7692 35.0769H25.8462V36.9231C25.8462 37.4127 25.6516 37.8822 25.3054 38.2284C24.9592 38.5746 24.4896 38.7693 24 38.7693C23.5104 38.7693 23.0408 38.5746 22.6946 38.2284C22.3484 37.8822 22.1539 37.4127 22.1539 36.9231V35.0769H18.4615C17.9719 35.0769 17.5023 34.8825 17.1561 34.5363C16.8099 34.1901 16.6154 33.7203 16.6154 33.2307C16.6154 32.7411 16.8099 32.2716 17.1561 31.9254C17.5023 31.5792 17.9719 31.3845 18.4615 31.3845H26.7692C27.5037 31.3845 28.208 31.0929 28.7274 30.5736C29.2467 30.0543 29.5385 29.3498 29.5385 28.6154C29.5385 27.8809 29.2467 27.1766 28.7274 26.6572C28.208 26.1379 27.5037 25.8461 26.7692 25.8461H21.2308C19.5171 25.8461 17.8735 25.1654 16.6618 23.9536C15.45 22.7418 14.7692 21.0983 14.7692 19.3846C14.7692 17.6709 15.45 16.0274 16.6618 14.8156C17.8735 13.6038 19.5171 12.9231 21.2308 12.9231H22.1539V11.0769C22.1539 10.5873 22.3484 10.1177 22.6946 9.77148C23.0408 9.42528 23.5104 9.23076 24 9.23076C24.4896 9.23076 24.9592 9.42528 25.3054 9.77148C25.6516 10.1177 25.8462 10.5873 25.8462 11.0769V12.9231H29.5385C30.0282 12.9231 30.4977 13.1176 30.8439 13.4638C31.1901 13.81 31.3845 14.2796 31.3845 14.7692C31.3845 15.2589 31.1901 15.7284 30.8439 16.0747C30.4977 16.4209 30.0282 16.6154 29.5385 16.6154H21.2308C20.4963 16.6154 19.792 16.9071 19.2726 17.4265C18.7533 17.9458 18.4615 18.6502 18.4615 19.3846C18.4615 20.1191 18.7533 20.8234 19.2726 21.3428C19.792 21.8621 20.4963 22.1538 21.2308 22.1538H26.7692C28.4829 22.1538 30.1266 22.8346 31.3383 24.0464C32.55 25.2581 33.2307 26.9017 33.2307 28.6154Z" fill="#0AE360"/>
<path id="Vector_2" d="M60.3666 11.1818V13.2273H54.3069V11.1818H60.3666ZM55.6938 21V10.4723C55.6938 9.76066 55.8324 9.17047 56.1093 8.70172C56.3907 8.23297 56.7741 7.8814 57.2598 7.64704C57.7458 7.41265 58.2975 7.29547 58.9155 7.29547C59.3331 7.29547 59.7144 7.32742 60.0597 7.39135C60.4092 7.45528 60.669 7.51279 60.8394 7.56394L60.3537 9.60937C60.2472 9.57529 60.1152 9.54334 59.9574 9.51349C59.8041 9.48367 59.6463 9.46876 59.4843 9.46876C59.0838 9.46876 58.8048 9.56251 58.647 9.75001C58.4892 9.93325 58.4106 10.1911 58.4106 10.5234V21H55.6938ZM62.0301 21V11.1818H64.7529V21H62.0301ZM63.3978 9.91621C62.9931 9.91621 62.6457 9.78196 62.3559 9.51349C62.0706 9.24079 61.9278 8.91478 61.9278 8.53552C61.9278 8.16052 62.0706 7.8388 62.3559 7.57033C62.6457 7.2976 62.9931 7.16122 63.3978 7.16122C63.8028 7.16122 64.1478 7.2976 64.4334 7.57033C64.7232 7.8388 64.8681 8.16052 64.8681 8.53552C64.8681 8.91478 64.7232 9.24079 64.4334 9.51349C64.1478 9.78196 63.8028 9.91621 63.3978 9.91621ZM69.6573 15.3239V21H66.9342V11.1818H69.5295V12.9141H69.6444C69.8619 12.3431 70.2261 11.8914 70.7376 11.559C71.2488 11.2223 71.8689 11.054 72.5976 11.054C73.2795 11.054 73.8738 11.2032 74.3811 11.5014C74.8881 11.7997 75.2823 12.2259 75.5637 12.7798C75.8448 13.3296 75.9855 13.9858 75.9855 14.7486V21H73.2624V15.2344C73.2666 14.6335 73.1133 14.1648 72.8022 13.8282C72.4911 13.4872 72.063 13.3168 71.5173 13.3168C71.151 13.3168 70.827 13.3956 70.5459 13.5533C70.2687 13.7109 70.0515 13.9411 69.8937 14.2436C69.7404 14.5419 69.6615 14.902 69.6573 15.3239ZM80.9313 21.1854C80.3049 21.1854 79.7466 21.0767 79.2567 20.8594C78.7665 20.6378 78.3786 20.3118 78.0933 19.8814C77.8119 19.4467 77.6712 18.9056 77.6712 18.2578C77.6712 17.7124 77.7714 17.2543 77.9718 16.8835C78.1722 16.5128 78.4449 16.2145 78.7899 15.9887C79.1352 15.7628 79.5273 15.5923 79.9662 15.4773C80.4093 15.3622 80.8737 15.2813 81.3597 15.2344C81.9306 15.1747 82.3908 15.1193 82.7403 15.0682C83.0898 15.0128 83.3433 14.9318 83.5008 14.8253C83.6586 14.7188 83.7375 14.5611 83.7375 14.3523V14.3139C83.7375 13.9091 83.6097 13.5959 83.3538 13.3743C83.1024 13.1527 82.7445 13.0419 82.2801 13.0419C81.7899 13.0419 81.3999 13.1506 81.1104 13.3679C80.8206 13.581 80.6286 13.8495 80.535 14.1733L78.0165 13.9688C78.1443 13.3722 78.3957 12.8565 78.7707 12.4219C79.1457 11.983 79.6293 11.6463 80.2218 11.412C80.8185 11.1733 81.5088 11.054 82.2927 11.054C82.8381 11.054 83.3604 11.1179 83.8587 11.2458C84.3618 11.3736 84.807 11.5717 85.1949 11.8402C85.5867 12.1087 85.8957 12.4539 86.1216 12.8757C86.3475 13.2933 86.4603 13.794 86.4603 14.3778V21H83.8779V19.6385H83.8014C83.6436 19.9453 83.4327 20.2159 83.1684 20.4503C82.9044 20.6804 82.5867 20.8615 82.2162 20.9936C81.8454 21.1215 81.417 21.1854 80.9313 21.1854ZM81.711 19.3061C82.1118 19.3061 82.4655 19.2273 82.7721 19.0696C83.079 18.9077 83.3199 18.6903 83.4945 18.4176C83.6691 18.1449 83.7567 17.8359 83.7567 17.4908V16.4489C83.6712 16.5043 83.5542 16.5554 83.4051 16.6023C83.2602 16.6449 83.0961 16.6854 82.9128 16.7237C82.7295 16.7578 82.5462 16.7898 82.3632 16.8196C82.1799 16.8452 82.0137 16.8686 81.8646 16.8899C81.5448 16.9368 81.2658 17.0114 81.0273 17.1137C80.7885 17.2159 80.6031 17.3544 80.4711 17.5291C80.3391 17.6996 80.2728 17.9127 80.2728 18.1683C80.2728 18.5391 80.4072 18.8225 80.6757 19.0185C80.9484 19.2102 81.2934 19.3061 81.711 19.3061ZM91.296 15.3239V21H88.5729V11.1818H91.1682V12.9141H91.2831C91.5006 12.3431 91.8648 11.8914 92.3763 11.559C92.8875 11.2223 93.5076 11.054 94.2363 11.054C94.9182 11.054 95.5125 11.2032 96.0198 11.5014C96.5268 11.7997 96.921 12.2259 97.2021 12.7798C97.4835 13.3296 97.6242 13.9858 97.6242 14.7486V21H94.9011V15.2344C94.9053 14.6335 94.752 14.1648 94.4409 13.8282C94.1298 13.4872 93.7014 13.3168 93.156 13.3168C92.7897 13.3168 92.4657 13.3956 92.1846 13.5533C91.9074 13.7109 91.6902 13.9411 91.5324 14.2436C91.3791 14.5419 91.3002 14.902 91.296 15.3239ZM104.206 21.1918C103.201 21.1918 102.336 20.9787 101.611 20.5526C100.891 20.1222 100.337 19.5256 99.9492 18.7628C99.5658 18 99.3738 17.1222 99.3738 16.1293C99.3738 15.1236 99.5679 14.2415 99.9555 13.483C100.348 12.7202 100.904 12.1257 101.624 11.6996C102.344 11.2692 103.201 11.054 104.194 11.054C105.05 11.054 105.8 11.2095 106.444 11.5206C107.087 11.8317 107.596 12.2685 107.971 12.831C108.346 13.3935 108.553 14.054 108.591 14.8125H106.022C105.949 14.3225 105.757 13.9283 105.446 13.63C105.139 13.3274 104.737 13.1762 104.238 13.1762C103.816 13.1762 103.448 13.2912 103.132 13.5213C102.821 13.7472 102.578 14.0774 102.404 14.5121C102.229 14.9467 102.142 15.473 102.142 16.0909C102.142 16.7173 102.227 17.25 102.397 17.6889C102.572 18.1278 102.817 18.4624 103.132 18.6925C103.448 18.9226 103.816 19.0377 104.238 19.0377C104.549 19.0377 104.828 18.9737 105.076 18.8459C105.327 18.7181 105.534 18.5327 105.696 18.2898C105.862 18.0426 105.97 17.7465 106.022 17.4013H108.591C108.549 18.1513 108.344 18.8118 107.977 19.3828C107.615 19.9496 107.115 20.3928 106.475 20.7124C105.836 21.032 105.08 21.1918 104.206 21.1918ZM114.809 21.1918C113.799 21.1918 112.93 20.9872 112.201 20.5782C111.477 20.1648 110.918 19.581 110.527 18.8267C110.134 18.0682 109.938 17.1712 109.938 16.1357C109.938 15.1257 110.134 14.2394 110.527 13.4766C110.918 12.7138 111.47 12.1193 112.182 11.6932C112.898 11.2671 113.737 11.054 114.7 11.054C115.348 11.054 115.951 11.1584 116.509 11.3672C117.072 11.5717 117.562 11.8807 117.979 12.294C118.402 12.7074 118.729 13.2273 118.964 13.8537C119.198 14.4759 119.315 15.2046 119.315 16.0398V16.7877H111.025V15.1002H116.752C116.752 14.7081 116.667 14.3608 116.497 14.0583C116.326 13.7557 116.09 13.5192 115.787 13.3487C115.489 13.174 115.141 13.0867 114.745 13.0867C114.332 13.0867 113.965 13.1826 113.646 13.3743C113.33 13.5618 113.083 13.8153 112.904 14.135C112.725 14.4503 112.634 14.8019 112.629 15.1896V16.794C112.629 17.2798 112.719 17.6996 112.898 18.0533C113.081 18.407 113.339 18.6797 113.671 18.8715C114.004 19.0632 114.398 19.1591 114.854 19.1591C115.156 19.1591 115.433 19.1165 115.685 19.0313C115.936 18.946 116.152 18.8182 116.33 18.6477C116.509 18.4773 116.646 18.2685 116.74 18.0213L119.258 18.1875C119.13 18.7926 118.868 19.321 118.472 19.7727C118.08 20.2202 117.573 20.5696 116.95 20.821C116.332 21.0682 115.619 21.1918 114.809 21.1918Z" fill="white"/>
<path id="Vector_3" d="M57.8865 39.1854C57.2598 39.1854 56.7018 39.0768 56.2116 38.8593C55.7217 38.6379 55.3338 38.3118 55.0482 37.8813C54.7671 37.4466 54.6264 36.9054 54.6264 36.2577C54.6264 35.7123 54.7266 35.2542 54.9267 34.8834C55.1271 34.5129 55.3998 34.2144 55.7451 33.9885C56.0901 33.7629 56.4822 33.5922 56.9211 33.4773C57.3642 33.3621 57.8289 33.2814 58.3146 33.2343C58.8858 33.1746 59.346 33.1194 59.6952 33.0681C60.0447 33.0129 60.2982 32.9319 60.456 32.8254C60.6135 32.7186 60.6924 32.5611 60.6924 32.3523V32.3139C60.6924 31.9092 60.5646 31.596 60.309 31.3743C60.0576 31.1526 59.6997 31.0419 59.235 31.0419C58.7451 31.0419 58.3551 31.1505 58.0653 31.368C57.7755 31.581 57.5838 31.8495 57.4902 32.1732L54.9717 31.9686C55.0995 31.3722 55.3509 30.8565 55.7259 30.4218C56.1009 29.983 56.5845 29.6463 57.1767 29.4119C57.7734 29.1733 58.4637 29.054 59.2479 29.054C59.7933 29.054 60.3153 29.1179 60.8139 29.2457C61.3167 29.3736 61.7622 29.5717 62.1498 29.8402C62.5419 30.1086 62.8509 30.4539 63.0768 30.8757C63.3027 31.2933 63.4155 31.794 63.4155 32.3778V39H60.8331V37.6386H60.7563C60.5988 37.9452 60.3879 38.2158 60.1236 38.4504C59.8593 38.6805 59.5419 38.8614 59.1711 38.9937C58.8003 39.1215 58.3722 39.1854 57.8865 39.1854ZM58.6662 37.3062C59.0667 37.3062 59.4204 37.2273 59.7273 37.0695C60.0342 36.9078 60.2748 36.6903 60.4497 36.4176C60.6243 36.1449 60.7116 35.8359 60.7116 35.4909V34.449C60.6264 34.5042 60.5091 34.5555 60.36 34.6023C60.2151 34.6449 60.051 34.6854 59.868 34.7238C59.6847 34.7577 59.5014 34.7898 59.3181 34.8195C59.1348 34.8453 58.9686 34.8687 58.8195 34.89C58.5 34.9368 58.221 35.0115 57.9822 35.1135C57.7437 35.2158 57.5583 35.3544 57.426 35.529C57.294 35.6997 57.228 35.9127 57.228 36.1683C57.228 36.5391 57.3621 36.8223 57.6306 37.0185C57.9033 37.2102 58.2486 37.3062 58.6662 37.3062ZM65.5281 42.6819V29.1818H68.2128V30.831H68.3343C68.4534 30.5667 68.6262 30.2982 68.8518 30.0255C69.0819 29.7486 69.3804 29.5185 69.7467 29.3352C70.1175 29.1477 70.5777 29.054 71.1276 29.054C71.8434 29.054 72.504 29.2415 73.1091 29.6165C73.7142 29.9872 74.1978 30.5475 74.5599 31.2975C74.9223 32.0433 75.1032 32.9787 75.1032 34.1037C75.1032 35.199 74.9265 36.1236 74.5728 36.8778C74.2233 37.6278 73.746 38.1966 73.1409 38.5845C72.54 38.9679 71.8668 39.1599 71.121 39.1599C70.5927 39.1599 70.143 39.0723 69.7725 38.8977C69.4059 38.7231 69.1056 38.5035 68.871 38.2392C68.6367 37.971 68.4576 37.7004 68.3343 37.4277H68.2512V42.6819H65.5281ZM68.1936 34.0908C68.1936 34.6746 68.2746 35.184 68.4363 35.6187C68.5983 36.0534 68.8326 36.3921 69.1395 36.6348C69.4464 36.8736 69.8193 36.993 70.2582 36.993C70.7013 36.993 71.0763 36.8715 71.3832 36.6285C71.6901 36.3813 71.9223 36.0405 72.0798 35.6058C72.2418 35.1669 72.3228 34.662 72.3228 34.0908C72.3228 33.5241 72.2439 33.0255 72.0864 32.5953C71.9286 32.1648 71.6964 31.8282 71.3895 31.5852C71.0826 31.3422 70.7055 31.221 70.2582 31.221C69.8151 31.221 69.4401 31.338 69.1332 31.5723C68.8305 31.8069 68.5983 32.1393 68.4363 32.5695C68.2746 33 68.1936 33.507 68.1936 34.0908ZM76.9188 42.6819V29.1818H79.6032V30.831H79.7247C79.8441 30.5667 80.0166 30.2982 80.2425 30.0255C80.4726 29.7486 80.7711 29.5185 81.1374 29.3352C81.5082 29.1477 81.9684 29.054 82.518 29.054C83.2341 29.054 83.8944 29.2415 84.4995 29.6165C85.1049 29.9872 85.5885 30.5475 85.9506 31.2975C86.313 32.0433 86.4939 32.9787 86.4939 34.1037C86.4939 35.199 86.3172 36.1236 85.9635 36.8778C85.614 37.6278 85.1367 38.1966 84.5316 38.5845C83.9307 38.9679 83.2575 39.1599 82.5117 39.1599C81.9834 39.1599 81.5337 39.0723 81.1629 38.8977C80.7966 38.7231 80.496 38.5035 80.2617 38.2392C80.0274 37.971 79.8483 37.7004 79.7247 37.4277H79.6416V42.6819H76.9188ZM79.5843 34.0908C79.5843 34.6746 79.665 35.184 79.827 35.6187C79.989 36.0534 80.2233 36.3921 80.5302 36.6348C80.8371 36.8736 81.21 36.993 81.6489 36.993C82.092 36.993 82.467 36.8715 82.7739 36.6285C83.0805 36.3813 83.313 36.0405 83.4705 35.6058C83.6325 35.1669 83.7135 34.662 83.7135 34.0908C83.7135 33.5241 83.6346 33.0255 83.4768 32.5953C83.3193 32.1648 83.0871 31.8282 82.7802 31.5852C82.4733 31.3422 82.0962 31.221 81.6489 31.221C81.2055 31.221 80.8305 31.338 80.5239 31.5723C80.2212 31.8069 79.989 32.1393 79.827 32.5695C79.665 33 79.5843 33.507 79.5843 34.0908Z" fill="white"/>
<path id="Vector_4" d="M89.901 39.1662C89.4789 39.1662 89.1168 39.0171 88.8144 38.7186C88.5159 38.4162 88.3668 38.0541 88.3668 37.632C88.3668 37.2144 88.5159 36.8565 88.8144 36.5583C89.1168 36.2598 89.4789 36.1107 89.901 36.1107C90.3099 36.1107 90.6681 36.2598 90.9747 36.5583C91.2816 36.8565 91.4349 37.2144 91.4349 37.632C91.4349 37.9134 91.3626 38.1711 91.2177 38.4054C91.077 38.6358 90.8916 38.8209 90.6615 38.9616C90.4314 39.0981 90.1779 39.1662 89.901 39.1662ZM93.6705 29.1818H96.3936V39.4857C96.3936 40.2444 96.2445 40.8579 95.9463 41.3268C95.6478 41.7954 95.2197 42.1386 94.6614 42.3558C94.1073 42.5733 93.4449 42.6819 92.6736 42.6819C92.5797 42.6819 92.4903 42.6798 92.4051 42.6753C92.3154 42.6753 92.2218 42.6732 92.1237 42.669V40.5405C92.1963 40.5447 92.2602 40.5468 92.3154 40.5468C92.3667 40.551 92.4222 40.5534 92.4816 40.5534C92.9205 40.5534 93.2274 40.4595 93.4023 40.272C93.5811 40.0887 93.6705 39.8118 93.6705 39.441V29.1818ZM95.0256 27.9162C94.6251 27.9162 94.2801 27.7819 93.9903 27.5135C93.7005 27.2408 93.5556 26.9148 93.5556 26.5355C93.5556 26.1605 93.7005 25.8388 93.9903 25.5703C94.2801 25.2976 94.6251 25.1612 95.0256 25.1612C95.4348 25.1612 95.7822 25.2976 96.0675 25.5703C96.3573 25.8388 96.5022 26.1605 96.5022 26.5355C96.5022 26.9148 96.3573 27.2408 96.0675 27.5135C95.7822 27.7819 95.4348 27.9162 95.0256 27.9162ZM106.744 31.9815L104.251 32.1348C104.209 31.9218 104.117 31.7301 103.976 31.5597C103.836 31.3848 103.65 31.2465 103.42 31.1442C103.194 31.0377 102.924 30.9843 102.608 30.9843C102.186 30.9843 101.831 31.074 101.541 31.2528C101.251 31.4277 101.106 31.662 101.106 31.956C101.106 32.1903 101.2 32.3886 101.387 32.5503C101.575 32.7123 101.897 32.8422 102.353 32.9403L104.13 33.2982C105.084 33.4944 105.796 33.8097 106.265 34.2444C106.733 34.6791 106.968 35.25 106.968 35.9574C106.968 36.6009 106.778 37.1655 106.399 37.6512C106.024 38.1372 105.508 38.5164 104.852 38.7891C104.2 39.0576 103.448 39.1917 102.596 39.1917C101.296 39.1917 100.26 38.9211 99.489 38.3799C98.7219 37.8345 98.2725 37.0929 98.1402 36.1554L100.819 36.015C100.9 36.4113 101.096 36.7137 101.407 36.9225C101.718 37.1271 102.116 37.2294 102.602 37.2294C103.079 37.2294 103.463 37.1379 103.753 36.9546C104.047 36.7671 104.196 36.5262 104.2 36.2322C104.196 35.985 104.091 35.7828 103.887 35.625C103.682 35.463 103.367 35.3394 102.941 35.2542L101.24 34.9155C100.282 34.7238 99.5679 34.3914 99.099 33.9183C98.6346 33.4452 98.4024 32.8422 98.4024 32.1093C98.4024 31.4787 98.5728 30.9354 98.9136 30.4794C99.2589 30.0234 99.7425 29.6719 100.365 29.4247C100.991 29.1776 101.724 29.054 102.564 29.054C103.804 29.054 104.78 29.3161 105.491 29.8402C106.207 30.3642 106.625 31.0782 106.744 31.9815Z" fill="#0AE360"/>
</g>
<defs>
<clipPath id="clip0_2_77">
<rect width="123" height="48" fill="white"/>
</clipPath>
</defs>
</svg>
