<?xml version="1.0" encoding="UTF-8"?>
<svg width="110px" height="55px" viewBox="0 0 110 55" version="1.1" xmlns="http://www.w3.org/2000/svg" xmlns:xlink="http://www.w3.org/1999/xlink">
    <!-- Generator: Sketch 53 (72520) - https://sketchapp.com -->
    <title>Group 54</title>
    <desc>Created with Sketch.</desc>
    <defs>
        <polygon id="path-1" points="0 0.054 109.895 0.054 109.895 44.4036 0 44.4036"></polygon>
    </defs>
    <g id="Symbols" stroke="none" stroke-width="1" fill="none" fill-rule="evenodd">
        <g id="Footer" transform="translate(-405.000000, -53.000000)">
            <g id="Group-6">
                <g id="Group-54" transform="translate(405.000000, 52.000000)">
                    <g>
                        <path d="M33.4204,23.5271 L32.8624,23.4901 L32.8774,23.0481 L32.9334,22.4871 L32.9494,21.9251 L33.5154,21.9251 C34.3104,21.9251 41.2724,20.9811 41.2724,12.2701 C41.2724,7.2971 36.8154,4.5291 32.3884,3.9931 L2.9874,3.9931 L2.9874,42.3611 L30.2054,42.3611 C37.7954,42.3611 40.7544,39.4041 40.7544,31.8151 C40.7544,27.6221 37.7394,23.8021 33.4204,23.5271" id="Fill-1" fill="#FEFEFE"></path>
                        <polygon id="Fill-3" fill="#FEFEFE" points="56.4223 25.7409 56.4223 12.4819 44.4783 12.4819 44.4783 42.3159 56.2433 42.3159 56.2433 28.6469 57.3263 30.4679 64.2243 42.1389 77.6073 42.1389 67.8903 26.6689 67.7063 26.3689 67.8753 26.0689 74.4893 14.5119 74.6533 14.2149 74.9973 14.2179 76.4443 14.2309 77.0163 14.2379 77.0163 22.1589 86.3603 22.1589 86.3603 41.7879 98.7163 41.7879 98.7163 21.6379 107.1903 21.6379 107.1903 12.4819 64.7283 12.4819 57.4903 24.0389"></polygon>
                        <g id="Group-7" transform="translate(0.000000, 0.946400)">
                            <mask id="mask-2" fill="white">
                                <use xlink:href="#path-1"></use>
                            </mask>
                            <g id="Clip-6"></g>
                            <path d="M63.229,8.8346 L63.06,9.1056 L59.131,15.3816 L59.131,8.8346 L43.979,8.8346 C43.038,4.6776 39.686,1.6596 34.439,0.3946 C33.373,0.1386 32.606,0.0616 32.581,0.0576 L32.548,0.0576 L32.524,0.0576 L0.579,0.0536 L0,0.0536 L0,44.4036 L30.206,44.4036 C35.871,44.4036 39.677,42.7906 41.774,39.4096 L41.774,44.0756 L58.953,44.0756 L58.953,37.5906 L62.512,43.6136 L62.688,43.8976 L82.508,43.8976 L81.949,43.0116 L70.859,25.3586 L74.308,19.3256 L74.308,23.9186 L83.653,23.9186 L83.653,43.5486 L101.419,43.5486 L101.419,23.3936 L109.895,23.3936 L109.895,8.8346 L63.229,8.8346 Z M30.206,41.4136 L2.988,41.4136 L2.988,3.0466 L32.389,3.0466 C36.816,3.5826 41.273,6.3496 41.273,11.3236 C41.273,20.0336 34.311,20.9796 33.515,20.9796 L32.951,20.9796 L32.933,21.5406 L32.878,22.1016 L32.864,22.5416 L33.42,22.5796 C37.74,22.8566 40.754,26.6756 40.754,30.8686 C40.754,38.4576 37.795,41.4136 30.206,41.4136 L30.206,41.4136 Z M37.833,21.8696 C39.115,21.1646 40.537,20.1006 41.774,18.5636 L41.774,25.3026 C40.748,23.9406 39.431,22.7866 37.833,21.8696 L37.833,21.8696 Z M107.191,20.6906 L98.716,20.6906 L98.716,40.8416 L86.361,40.8416 L86.361,21.2126 L77.016,21.2126 L77.016,13.2916 L76.445,13.2846 L74.999,13.2706 L74.656,13.2686 L74.491,13.5646 L67.875,25.1216 L67.706,25.4226 L67.89,25.7216 L77.607,41.1916 L64.224,41.1916 L57.328,29.5206 L56.245,27.6996 L56.245,41.3696 L44.478,41.3696 L44.478,11.5356 L56.423,11.5356 L56.423,24.7956 L57.492,23.0916 L64.729,11.5356 L107.191,11.5356 L107.191,20.6906 Z" id="Fill-5" fill="#E82428" mask="url(#mask-2)"></path>
                        </g>
                        <path d="M17.5864,26.2898 C17.5864,26.2898 17.9664,25.9958 17.4394,25.7638 C17.4394,25.7638 15.1434,26.4588 13.7174,26.3958 C12.2854,26.3318 9.7764,26.2658 7.4044,24.8968 C7.4044,24.8968 6.7894,24.8618 8.0074,25.5518 C9.2294,26.2488 12.1954,27.5278 17.5864,26.2898 L17.5864,26.2898 Z M17.9244,26.6438 C17.9244,26.6438 13.4594,27.9508 9.6124,26.7128 C9.6124,26.7128 10.5784,27.8748 14.6024,27.6578 C17.5454,27.4978 18.1984,27.0258 18.1984,27.0258 C18.1984,27.0258 18.3674,26.7278 17.9244,26.6438 L17.9244,26.6438 Z M17.8614,28.4798 C17.8614,28.4798 15.8424,30.0188 12.8544,29.0698 C12.8544,29.0698 12.5554,29.1908 12.9804,29.3818 C13.3974,29.5678 14.2624,29.9728 15.4224,29.8058 C16.5754,29.6318 17.0384,29.5528 18.0074,28.8168 C18.0074,28.8168 18.3674,28.4358 17.8614,28.4798 L17.8614,28.4798 Z M30.9104,22.0918 C30.9104,22.0918 30.7974,21.8228 30.5074,22.0698 C30.2224,22.3098 29.7164,22.6238 29.9794,22.8218 C30.2524,23.0198 31.1084,24.3688 31.1084,24.3688 L21.7104,30.4058 C21.7104,30.4058 20.6964,31.3128 19.3444,30.6498 C19.3444,30.6498 19.0564,30.7168 19.3224,31.0048 C19.5884,31.2938 20.0964,31.8018 21.0704,31.3338 C22.0444,30.8668 31.6164,24.5718 31.6164,24.5718 L30.9104,22.0918 Z M28.9454,30.0088 C29.4054,30.0308 29.2344,29.6818 28.9644,29.6318 C28.6984,29.5878 28.1034,29.6088 27.6134,29.8528 C27.1284,30.0968 26.9304,30.3828 27.2634,30.4058 C27.5914,30.4288 27.5704,30.2328 28.0604,30.0088 C28.5444,29.7868 28.9454,30.0088 28.9454,30.0088 L28.9454,30.0088 Z M29.0314,31.0458 C29.0314,31.0458 29.1624,30.5168 28.7454,30.4508 C28.3204,30.3828 27.9244,30.5768 28.1234,30.8328 C28.3204,31.0708 28.3034,31.2688 28.0134,31.2278 C27.7244,31.1808 27.9484,31.4418 28.1234,31.5808 C28.3034,31.7118 28.4764,32.0868 27.9484,31.9788 C27.4134,31.8678 26.5334,31.3988 26.3304,31.2938 C26.1354,31.1808 24.6924,30.6928 24.2294,30.6928 C23.7694,30.6928 23.2554,31.3758 23.7694,31.7118 C24.2764,32.0438 25.4674,32.5978 25.7354,32.6648 C26.0004,32.7268 26.9964,33.2368 27.2354,34.6288 C27.4804,36.0238 27.9674,36.4428 28.4984,36.5098 C29.0314,36.5818 29.8954,36.1348 30.0734,35.9358 C30.2524,35.7348 30.4904,35.6018 30.7974,35.8238 C30.7974,35.8238 30.9754,35.6728 30.9534,35.5368 C30.9344,35.4068 30.9344,35.0958 30.9344,35.0958 C30.9344,35.0958 30.6644,34.9408 30.4904,34.9838 C30.3124,35.0278 29.6724,35.2268 29.5624,34.9838 C29.4464,34.7458 29.2734,34.1888 29.8064,34.0768 C30.3364,33.9718 30.6234,33.9248 30.6234,33.9248 C30.6234,33.9248 29.5404,32.5538 29.5844,31.9788 C29.5844,31.9788 29.5844,31.2278 29.4054,31.2018 C29.2344,31.1808 29.0314,31.0458 29.0314,31.0458 L29.0314,31.0458 Z M32.4394,33.9428 C32.4394,33.9428 32.8784,34.0098 32.5914,33.4148 C32.2994,32.8138 31.7254,31.6448 31.4144,30.7998 C31.1084,29.9668 30.8694,29.7868 30.8694,29.1468 C30.8694,28.5058 30.7084,27.0008 30.4684,26.5328 C30.4684,26.5328 30.3754,26.2708 30.0254,26.5608 C29.6724,26.8448 26.6224,28.6858 26.6224,28.6858 C26.6224,28.6858 26.6634,28.8578 27.1534,28.7478 C27.6374,28.6408 29.4294,28.2828 30.1384,28.8168 C30.8424,29.3428 30.6014,29.9868 30.5584,30.2108 C30.5074,30.4288 30.4834,31.0948 31.3544,32.5088 C32.5244,34.4068 32.4394,33.9428 32.4394,33.9428 L32.4394,33.9428 Z M30.5794,37.4818 C30.5794,37.4818 30.8194,37.4178 30.7534,37.0658 C30.6864,36.7108 30.4684,36.6888 30.2684,36.6888 C30.0734,36.6888 29.4294,36.9998 29.4294,36.9998 C29.4294,36.9998 29.4464,37.1108 29.8734,37.1288 C30.2904,37.1528 30.5794,37.4818 30.5794,37.4818 L30.5794,37.4818 Z M29.9384,38.6328 C29.9384,38.6328 29.4054,38.3008 28.7454,38.3258 C28.0814,38.3468 27.9244,38.5678 27.8984,38.7638 C27.8764,38.9658 27.7714,39.5858 28.2774,39.9368 C28.7884,40.2928 28.9644,40.2928 29.1624,40.3148 C29.3624,40.3378 29.8284,40.7318 29.8734,40.8508 C29.9164,40.9568 30.1124,41.1348 30.3124,40.6228 C30.5074,40.1138 30.7914,39.4528 29.9384,38.6328 L29.9384,38.6328 Z M28.6984,20.4818 C28.6984,20.4818 28.8774,20.2778 28.6104,20.2628 C28.2404,20.2418 27.5334,20.3868 27.2854,20.4688 C27.0374,20.5568 26.9164,20.4998 26.9164,20.4998 C22.9054,18.9358 20.0824,19.3958 19.4864,19.4868 C14.4854,20.1878 12.3644,23.0918 12.1114,23.3858 C11.8624,23.6798 12.1114,23.7268 12.1114,23.7268 L12.4224,23.7268 C12.5844,23.7268 12.8054,23.4798 12.8054,23.4798 C17.5544,17.9898 25.4794,20.5048 25.9874,20.6138 C26.4944,20.7268 26.4184,20.8418 26.4184,20.8418 C26.4414,21.3938 26.8104,21.0728 26.8104,21.0728 C27.3404,20.6598 28.6984,20.4818 28.6984,20.4818 L28.6984,20.4818 Z M29.7164,21.0608 L29.9634,21.0918 L29.4994,21.6148 L27.8354,23.1968 C27.1214,22.7268 26.6584,22.7708 26.1114,22.7098 C25.5664,22.6448 25.7954,22.3928 25.9834,22.2478 C26.1744,22.1008 26.7024,22.0548 26.8734,22.0778 C27.0404,22.1008 27.0814,22.2478 27.7584,22.2028 C28.4294,22.1648 29.0144,21.7018 29.2274,21.4868 C29.4374,21.2768 29.1624,21.0468 29.1624,21.0468 C27.5194,20.8978 26.4514,21.7618 26.4514,21.7618 C24.9534,20.4778 21.7104,20.4368 20.5984,20.5408 C15.7124,21.0068 13.9874,23.6378 13.9874,23.6378 C13.9874,23.6378 18.1134,23.7198 18.7004,23.6978 C19.2914,23.6798 19.8844,23.7588 20.1764,24.0388 C20.4704,24.3088 20.5104,24.3318 20.6824,24.4168 C20.8484,24.4998 22.4694,24.4788 22.8094,24.4998 C23.1444,24.5198 24.1144,24.4568 24.4924,24.7938 C24.9704,25.2218 24.7874,25.6808 24.7874,25.6808 L20.5354,29.5288 C19.9664,29.4678 19.8164,28.9388 19.9014,28.5628 C19.9854,28.1818 20.5544,27.9108 20.8484,27.9508 C21.1414,27.9958 21.4784,27.9108 21.4394,27.7858 C21.4014,27.6578 20.9334,27.5508 20.9334,27.5508 C20.1764,26.7958 21.0854,26.3708 21.0854,26.3708 C21.0854,26.3708 22.1534,26.2898 22.5944,26.3318 C23.0384,26.3708 22.8264,26.0808 22.7004,26.0578 C22.5704,26.0348 21.3554,26.0188 21.0994,26.0348 C20.8484,26.0578 20.6614,25.8668 20.5764,25.5298 C20.4914,25.1948 20.8484,25.0928 20.8484,25.0928 C20.8484,25.0928 22.6784,25.2168 23.2894,25.1728 C23.9024,25.1328 23.2894,24.8968 23.2894,24.8968 C23.2894,24.8968 21.4154,24.7938 20.9094,24.7938 C20.4074,24.7938 20.1184,24.6138 20.1184,24.6138 C19.7614,24.2618 19.0564,24.1238 19.0564,24.1238 C19.0564,24.1238 15.2954,24.0848 12.0654,23.9928 C8.8394,23.9058 6.5624,22.8658 6.5624,22.8658 C6.5024,22.9728 6.2194,23.4878 6.2194,23.4878 C10.5124,25.3878 14.2624,24.9198 14.9794,24.8158 C15.6904,24.7068 17.5044,24.4788 18.7004,24.6028 C19.9014,24.7318 20.2384,25.8878 20.1764,26.5818 C20.1094,27.2758 19.6454,27.4218 19.4164,27.4698 C19.1904,27.5108 19.0164,27.4898 18.7434,27.2758 C18.4734,27.0698 17.8154,27.5108 17.8154,27.5108 C14.0964,28.8168 11.8174,27.9958 11.2314,27.8668 C10.6424,27.7418 9.9994,27.5928 10.7464,27.9288 C14.4334,29.6208 17.4824,28.2668 18.1134,27.9288 C18.7434,27.5948 19.1244,28.1018 19.1674,28.4118 C19.2114,28.7278 19.2914,29.5918 19.9224,29.8628 C20.5544,30.1438 20.9094,29.6818 20.9094,29.6818 L24.9724,26.2898 C25.5464,25.8118 29.6614,22.1358 30.7084,21.2048 C30.7494,21.2068 30.8954,20.9988 31.0434,21.0158 C31.1874,21.0288 31.2964,21.5318 31.4434,22.0168 C31.5884,22.5088 31.9714,23.7098 32.1614,24.5108 C32.2244,24.7578 32.1494,24.9508 31.9594,25.0878 C31.7674,25.2168 30.9844,25.8538 30.9844,25.8538 C30.9844,25.8538 30.8194,26.1128 30.8954,26.4588 C30.9664,26.7958 31.2644,27.8838 31.1764,29.1738 C31.1634,29.3378 31.3354,29.8628 31.4594,30.1158 C31.5834,30.3598 32.6584,32.5198 32.8204,32.8898 C32.9794,33.2628 33.5534,34.4248 32.2004,34.9478 C31.7454,35.1228 31.3354,35.1228 31.3354,35.1228 C31.3354,35.1228 31.2404,35.3528 31.2814,35.5858 C31.3184,35.8128 31.1764,36.2568 30.9244,36.3258 C30.6814,36.3938 30.9614,36.7548 31.0504,36.8198 C31.1354,36.8908 31.3714,37.6698 30.4274,38.4138 C30.4274,38.4138 31.2404,39.3338 30.8544,40.4088 C30.4684,41.4878 29.6364,41.4718 29.2624,41.4718 L13.8044,41.4798 C13.8044,41.4798 13.2184,41.5388 13.4544,40.9778 C13.6914,40.4188 14.1614,38.5878 13.3074,38.5008 C12.4544,38.4138 11.1254,38.2968 10.4184,37.6468 C9.7074,36.9998 9.8574,38.2078 9.9144,38.3258 C9.9724,38.4438 10.2984,40.5648 10.8314,41.3628 L7.1984,41.3628 L6.4664,40.1818 C6.4664,40.1818 6.8874,39.4568 6.9624,39.2698 C7.0424,39.0748 6.8924,38.9778 6.7454,39.0978 C6.6034,39.2168 6.0504,39.5898 6.0504,39.5898 C6.0504,39.5898 4.9204,37.6648 4.2054,35.0388 L5.1444,33.8648 C5.5854,33.3048 4.7344,33.7618 4.5634,33.7828 C4.4524,33.7888 4.2204,34.0288 4.1184,34.0518 C4.0154,34.0768 3.9144,30.5028 4.0954,29.9358 C4.2564,29.4188 4.6524,29.4188 4.7964,29.3318 C4.9444,29.2458 5.4914,28.8848 5.5634,28.7238 C5.6384,28.5628 5.5374,28.5778 5.4164,28.5528 C5.3004,28.5188 4.5494,28.6858 4.3724,28.5628 C4.1984,28.4428 4.7274,27.3708 4.7274,27.3708 C4.7274,27.3708 5.8614,23.0808 7.9674,20.7928 L9.7864,20.7488 C9.8374,20.7488 10.1514,20.7048 9.7674,20.4548 C9.3884,20.2078 8.8394,19.9548 8.8394,19.9548 C8.8394,19.9548 8.9984,19.7168 9.3114,19.3918 C9.6174,19.0728 11.8624,16.8728 13.8044,16.1028 C13.8044,16.1028 14.8094,16.6488 15.3574,17.1208 C15.3574,17.1208 15.4904,17.2098 15.2544,16.5488 C15.0204,15.8858 15.0014,15.6038 15.1474,15.5148 C15.2954,15.4228 18.5144,13.9698 23.4224,14.4798 C23.5954,14.5018 23.6704,14.6458 23.6884,14.7338 L24.0084,16.2248 C24.0974,16.2338 24.1744,16.1208 24.3644,15.6768 C24.5604,15.2318 24.6404,14.7218 24.9414,14.7338 C25.2304,14.7478 28.3304,15.5148 31.1174,17.4468 C31.3004,17.5758 31.3974,17.7698 31.2234,17.8568 C31.0434,17.9478 29.1714,18.9358 28.9084,19.8768 C28.7784,20.3168 29.0244,20.2338 29.3304,20.3278 C29.6414,20.4108 29.7164,21.0608 29.7164,21.0608 L29.7164,21.0608 Z" id="Fill-8" fill="#6C6E70"></path>
                        <path d="M1.3964,54.7556 L1.6734,54.7556 C2.0804,54.7556 2.3444,54.7326 2.4544,54.6856 C2.7224,54.5666 2.8554,54.2456 2.8554,53.7196 C2.8554,53.3186 2.7974,53.0476 2.6774,52.8966 C2.5394,52.7316 2.2814,52.6476 1.8954,52.6476 L1.3964,52.6476 L1.3964,54.7556 Z M1.3964,51.6246 L1.6374,51.6246 C2.1384,51.6246 2.4454,51.5436 2.5604,51.3846 C2.6594,51.2606 2.7034,51.0066 2.7034,50.6336 C2.7034,50.3486 2.6594,50.1506 2.5744,50.0366 C2.4694,49.9006 2.2764,49.8336 2.0014,49.8336 L1.3964,49.8336 L1.3964,51.6246 Z M2.3874,55.7826 L0.0894,55.7826 L0.0894,48.8086 L2.1914,48.8086 C2.9124,48.8086 3.4004,48.9846 3.6734,49.3186 C3.9004,49.6116 4.0154,50.0326 4.0154,50.5756 C4.0154,51.3416 3.7354,51.8306 3.1734,52.0346 L3.1734,52.0526 C3.8554,52.1476 4.1894,52.6836 4.1894,53.6756 C4.1894,54.0336 4.1574,54.3186 4.0954,54.5296 C3.9624,54.9686 3.7574,55.2826 3.4874,55.4806 C3.2194,55.6796 2.8554,55.7826 2.3874,55.7826 L2.3874,55.7826 Z" id="Fill-10" fill="#6C6E70"></path>
                        <path d="M5.6831,55.7829 L4.2871,55.7829 L5.9541,48.8079 L7.7051,48.8079 L9.2851,55.7829 L7.8911,55.7829 L7.5511,54.0129 L6.0241,54.0129 L5.6831,55.7829 Z M6.6201,51.0159 L6.2291,52.9949 L7.3461,52.9949 L6.9721,51.0159 C6.9461,50.6969 6.8871,50.2199 6.8151,49.5819 L6.7981,49.5819 C6.7721,49.8969 6.7141,50.3759 6.6201,51.0159 L6.6201,51.0159 Z" id="Fill-12" fill="#6C6E70"></path>
                        <path d="M12.6635,50.1765 L12.6635,48.8085 L13.9635,48.8085 L13.9635,55.7825 L12.6055,55.7825 L11.5955,53.2975 C11.2675,52.4925 10.9565,51.5725 10.6665,50.5305 L10.6475,50.5305 C10.7825,52.2205 10.8475,53.5325 10.8475,54.4685 L10.8475,55.7825 L9.5505,55.7825 L9.5505,48.8085 L10.8965,48.8085 L11.9115,51.3455 C12.2585,52.2205 12.5645,53.1475 12.8395,54.1155 L12.8585,54.1155 C12.7245,52.3455 12.6635,51.0305 12.6635,50.1765" id="Fill-14" fill="#6C6E70"></path>
                        <path d="M15.7963,55.7829 L14.4993,55.7829 L14.4993,48.8079 L15.7963,48.8079 L15.7963,51.9059 L15.8153,51.9059 C15.9363,51.5809 16.2063,51.0239 16.6383,50.2289 L17.3973,48.8079 L18.8643,48.8079 L17.1443,51.7999 L18.9493,55.7829 L17.4823,55.7829 L16.2523,53.0319 L15.7963,53.7809 L15.7963,55.7829 Z" id="Fill-16" fill="#6C6E70"></path>
                        <path d="M20.5234,55.7829 L19.1274,55.7829 L20.7884,48.8079 L22.5514,48.8079 L24.1284,55.7829 L22.7324,55.7829 L22.3894,54.0129 L20.8654,54.0129 L20.5234,55.7829 Z M21.4614,51.0159 L21.0704,52.9949 L22.1844,52.9949 L21.8154,51.0159 C21.7824,50.6969 21.7294,50.2199 21.6564,49.5819 L21.6344,49.5819 C21.6114,49.8969 21.5504,50.3759 21.4614,51.0159 L21.4614,51.0159 Z" id="Fill-18" fill="#6C6E70"></path>
                        <path d="M28.4941,55.7829 L27.1911,55.7829 L27.1911,48.8079 L28.4941,48.8079 L28.4941,51.9059 L28.5131,51.9059 C28.6291,51.5809 28.8991,51.0239 29.3301,50.2289 L30.0901,48.8079 L31.5571,48.8079 L29.8421,51.7999 L31.6431,55.7829 L30.1751,55.7829 L28.9471,53.0319 L28.4941,53.7809 L28.4941,55.7829 Z" id="Fill-20" fill="#6C6E70"></path>
                        <path d="M31.6562,52.7312 L31.6562,51.7362 C31.6562,50.6912 31.7762,49.9562 32.0172,49.5262 C32.3422,48.9342 32.9842,48.6412 33.9322,48.6412 C34.8802,48.6412 35.5192,48.9342 35.8562,49.5262 C36.0882,49.9562 36.2062,50.6912 36.2062,51.7362 L36.2062,52.7312 C36.2062,53.8412 36.0982,54.6092 35.8732,55.0362 C35.5502,55.6452 34.9072,55.9462 33.9322,55.9462 C32.9582,55.9462 32.3142,55.6452 31.9882,55.0362 C31.7672,54.6092 31.6562,53.8412 31.6562,52.7312 M32.9942,51.4472 L32.9942,53.3862 C32.9942,54.3902 33.3052,54.8972 33.9322,54.8972 C34.3422,54.8972 34.6122,54.7062 34.7492,54.3342 C34.8312,54.1112 34.8702,53.7572 34.8702,53.2712 L34.8702,51.4882 C34.8702,50.9862 34.8342,50.6182 34.7662,50.3802 C34.6272,49.9232 34.3482,49.6962 33.9322,49.6962 C33.4912,49.6962 33.2082,49.9232 33.0782,50.3762 C33.0202,50.5692 32.9942,50.9322 32.9942,51.4472" id="Fill-22" fill="#6C6E70"></path>
                        <path d="M38.1455,53.5876 L38.1455,55.7826 L36.8455,55.7826 L36.8455,48.8086 L38.9165,48.8086 L39.6135,52.0436 C39.7105,52.4876 39.7895,53.0256 39.8545,53.6496 L39.8725,53.6496 C39.9105,53.2716 39.9785,52.7316 40.0765,52.0436 L40.7745,48.8086 L42.8355,48.8086 L42.8355,55.7826 L41.5335,55.7826 L41.5335,53.5876 C41.5335,52.0526 41.5705,50.6696 41.6495,49.4386 L41.6265,49.4386 L40.2365,55.7826 L39.4445,55.7826 L38.0775,49.4386 L38.0325,49.4386 C38.1065,50.6696 38.1455,52.0526 38.1455,53.5876" id="Fill-24" fill="#6C6E70"></path>
                        <path d="M44.8105,54.7556 L45.0865,54.7556 C45.5005,54.7556 45.7625,54.7326 45.8725,54.6856 C46.1355,54.5666 46.2705,54.2456 46.2705,53.7196 C46.2705,53.3186 46.2125,53.0476 46.0925,52.8966 C45.9515,52.7316 45.6955,52.6476 45.3125,52.6476 L44.8105,52.6476 L44.8105,54.7556 Z M44.8105,51.6246 L45.0535,51.6246 C45.5515,51.6246 45.8595,51.5436 45.9805,51.3846 C46.0725,51.2606 46.1205,51.0066 46.1205,50.6336 C46.1205,50.3486 46.0775,50.1506 45.9945,50.0366 C45.8865,49.9006 45.6915,49.8336 45.4115,49.8336 L44.8105,49.8336 L44.8105,51.6246 Z M45.8075,55.7826 L43.5085,55.7826 L43.5085,48.8086 L45.6035,48.8086 C46.3255,48.8086 46.8195,48.9846 47.0875,49.3186 C47.3135,49.6116 47.4295,50.0326 47.4295,50.5756 C47.4295,51.3416 47.1555,51.8306 46.5935,52.0346 L46.5935,52.0526 C47.2675,52.1476 47.6065,52.6836 47.6065,53.6756 C47.6065,54.0336 47.5755,54.3186 47.5135,54.5296 C47.3765,54.9686 47.1695,55.2826 46.8995,55.4806 C46.6345,55.6796 46.2705,55.7826 45.8075,55.7826 L45.8075,55.7826 Z" id="Fill-26" fill="#6C6E70"></path>
                        <polygon id="Fill-28" fill="#6C6E70" points="51.6943 55.7829 48.0343 55.7829 48.0343 48.8079 51.6943 48.8079 51.6943 49.8339 49.3273 49.8339 49.3273 51.5899 51.5053 51.5899 51.5053 52.6139 49.3273 52.6139 49.3273 54.7559 51.6943 54.7559"></polygon>
                        <polygon id="Fill-30" fill="#6C6E70" points="52.2539 49.8337 52.2539 48.8087 56.5879 48.8087 56.5879 49.8337 55.0779 49.8337 55.0779 55.7827 53.7729 55.7827 53.7729 49.8337"></polygon>
                        <path d="M57.207,55.7829 L55.815,55.7829 L57.473,48.8079 L59.233,48.8079 L60.812,55.7829 L59.419,55.7829 L59.074,54.0129 L57.552,54.0129 L57.207,55.7829 Z M58.148,51.0159 L57.757,52.9949 L58.869,52.9949 L58.5,51.0159 C58.464,50.6969 58.415,50.2199 58.34,49.5819 L58.323,49.5819 C58.3,49.8969 58.242,50.3759 58.148,51.0159 L58.148,51.0159 Z" id="Fill-32" fill="#6C6E70"></path>
                        <path d="M62.7778,52.7771 L62.5448,52.7771 L62.5448,55.7831 L61.2428,55.7831 L61.2428,48.8081 L63.7068,48.8081 C65.0208,48.8081 65.6828,49.3701 65.6828,50.4871 C65.6828,51.5061 65.3298,52.0661 64.6098,52.1681 L64.6098,52.1851 C65.2888,52.2721 65.6208,52.6921 65.6208,53.4491 C65.6208,54.7951 65.7158,55.5281 65.8978,55.6501 L65.8978,55.7831 L64.4648,55.7831 C64.3888,55.5791 64.3448,54.9871 64.3288,54.0131 C64.3238,53.6871 64.3008,53.4581 64.2698,53.3281 C64.2028,53.0791 64.0738,52.9291 63.8788,52.8751 C63.6698,52.8091 63.3008,52.7771 62.7778,52.7771 L62.7778,52.7771 Z M62.5448,49.8341 L62.5448,51.7581 L63.5658,51.7581 C64.0738,51.7581 64.3288,51.4261 64.3288,50.7541 C64.3288,50.3901 64.2528,50.1361 64.1068,50.0021 C63.9818,49.8921 63.7848,49.8341 63.5108,49.8341 L62.5448,49.8341 Z" id="Fill-34" fill="#6C6E70"></path>
                        <polygon id="Fill-36" fill="#6C6E70" points="70.0131 55.7829 66.3571 55.7829 66.3571 48.8079 70.0131 48.8079 70.0131 49.8339 67.6591 49.8339 67.6591 51.5899 69.8321 51.5899 69.8321 52.6139 67.6591 52.6139 67.6591 54.7559 70.0131 54.7559"></polygon>
                        <polygon id="Fill-38" fill="#6C6E70" points="72.9184 49.8337 72.9184 48.8087 77.2554 48.8087 77.2554 49.8337 75.7394 49.8337 75.7394 55.7827 74.4384 55.7827 74.4384 49.8337"></polygon>
                        <path d="M79.1909,52.7771 L78.9609,52.7771 L78.9609,55.7831 L77.6579,55.7831 L77.6579,48.8081 L80.1189,48.8081 C81.4389,48.8081 82.1029,49.3701 82.1029,50.4871 C82.1029,51.5061 81.7419,52.0661 81.0319,52.1681 L81.0319,52.1851 C81.6979,52.2721 82.0349,52.6921 82.0349,53.4491 C82.0349,54.7951 82.1289,55.5281 82.3109,55.6501 L82.3109,55.7831 L80.8789,55.7831 C80.8039,55.5791 80.7619,54.9871 80.7429,54.0131 C80.7379,53.6871 80.7159,53.4581 80.6839,53.3281 C80.6169,53.0791 80.4879,52.9291 80.2989,52.8751 C80.0839,52.8091 79.7189,52.7771 79.1909,52.7771 L79.1909,52.7771 Z M78.9609,49.8341 L78.9609,51.7581 L79.9769,51.7581 C80.4879,51.7581 80.7429,51.4261 80.7429,50.7541 C80.7429,50.3901 80.6679,50.1361 80.5209,50.0021 C80.3949,49.8921 80.1949,49.8341 79.9249,49.8341 L78.9609,49.8341 Z" id="Fill-40" fill="#6C6E70"></path>
                        <polygon id="Fill-42" fill="#6C6E70" points="86.3403 55.7829 82.6813 55.7829 82.6813 48.8079 86.3403 48.8079 86.3403 49.8339 83.9793 49.8339 83.9793 51.5899 86.1533 51.5899 86.1533 52.6139 83.9793 52.6139 83.9793 54.7559 86.3403 54.7559"></polygon>
                        <path d="M86.8823,52.7312 L86.8823,51.7362 C86.8823,50.6822 87.0023,49.9492 87.2413,49.5262 C87.5673,48.9342 88.2033,48.6412 89.1593,48.6412 C89.7603,48.6412 90.2253,48.7442 90.5633,48.9392 C90.9463,49.1732 91.2043,49.5812 91.3413,50.1502 C91.3733,50.2712 91.3953,50.5482 91.4053,50.9932 L90.1103,50.9932 C90.0923,50.5542 90.0443,50.2492 89.9593,50.0852 C89.8243,49.8302 89.5593,49.6962 89.1593,49.6962 C88.7233,49.6852 88.4383,49.9142 88.3063,50.3642 C88.2523,50.5622 88.2213,50.9252 88.2213,51.4472 L88.2213,53.3862 C88.2213,54.3902 88.5363,54.8972 89.1593,54.8972 C89.8283,54.8972 90.1453,54.2782 90.1183,53.0562 L89.2123,53.0562 L89.2123,52.0352 L91.3753,52.0352 L91.3753,55.7832 L90.4083,55.7832 L90.4083,54.9842 L90.3843,54.9842 C90.1543,55.6172 89.7443,55.9382 89.1593,55.9462 C88.1843,55.9552 87.5403,55.6572 87.2213,55.0442 C86.9933,54.6182 86.8823,53.8482 86.8823,52.7312" id="Fill-44" fill="#6C6E70"></path>
                        <polygon id="Fill-46" fill="#6C6E70" points="91.5737 49.8337 91.5737 48.8087 95.9067 48.8087 95.9067 49.8337 94.3937 49.8337 94.3937 55.7827 93.0917 55.7827 93.0917 49.8337"></polygon>
                        <path d="M96.4331,55.7829 L95.0351,55.7829 L96.7011,48.8079 L98.4601,48.8079 L100.0381,55.7829 L98.6471,55.7829 L98.2981,54.0129 L96.7721,54.0129 L96.4331,55.7829 Z M97.3711,51.0159 L96.9831,52.9949 L98.0941,52.9949 L97.7201,51.0159 C97.6941,50.6969 97.6411,50.2199 97.5661,49.5819 L97.5501,49.5819 C97.5231,49.8969 97.4651,50.3759 97.3711,51.0159 L97.3711,51.0159 Z" id="Fill-48" fill="#6C6E70"></path>
                        <path d="M102.0034,52.7771 L101.7734,52.7771 L101.7734,55.7831 L100.4744,55.7831 L100.4744,48.8081 L102.9324,48.8081 C104.2474,48.8081 104.9094,49.3701 104.9094,50.4871 C104.9094,51.5061 104.5554,52.0661 103.8444,52.1681 L103.8444,52.1851 C104.5114,52.2721 104.8414,52.6921 104.8414,53.4491 C104.8414,54.7951 104.9434,55.5281 105.1244,55.6501 L105.1244,55.7831 L103.6924,55.7831 C103.6214,55.5791 103.5654,54.9871 103.5534,54.0131 C103.5484,53.6871 103.5274,53.4581 103.4964,53.3281 C103.4314,53.0791 103.3014,52.9291 103.1074,52.8751 C102.9004,52.8091 102.5264,52.7771 102.0034,52.7771 L102.0034,52.7771 Z M101.7734,49.8341 L101.7734,51.7581 L102.7904,51.7581 C103.3014,51.7581 103.5534,51.4261 103.5534,50.7541 C103.5534,50.3901 103.4774,50.1361 103.3324,50.0021 C103.2054,49.8921 103.0064,49.8341 102.7354,49.8341 L101.7734,49.8341 Z" id="Fill-50" fill="#6C6E70"></path>
                        <polygon id="Fill-52" fill="#6C6E70" points="109.5209 55.7829 105.8579 55.7829 105.8579 48.8079 109.5209 48.8079 109.5209 49.8339 107.1609 49.8339 107.1609 51.5899 109.3339 51.5899 109.3339 52.6139 107.1609 52.6139 107.1609 54.7559 109.5209 54.7559"></polygon>
                    </g>
                </g>
            </g>
        </g>
    </g>
</svg>